{"title":"The Block - S12E08 - Guest Bedrooms Revealed","uid":15758045,"size":1532476331,"categoryP":"video","categoryS":"tv_shows","magnet":"?xt=urn:btih:b88296be12d1fbeb381cbe96afe59755a821acbc&amp;dn=The+Block+-+S12E08+-+Guest+Bedrooms+Revealed&amp;tr=udp%3A%2F%2Ftracker.leechers-paradise.org%3A6969&amp;tr=udp%3A%2F%2Fzer0day.ch%3A1337&amp;tr=udp%3A%2F%2Fopen.demonii.com%3A1337&amp;tr=udp%3A%2F%2Ftracker.coppersurfer.tk%3A6969&amp;tr=udp%3A%2F%2Fexodus.desync.com%3A6969","seeders":4,"leechers":2,"uploader":"Bullrout","files":1,"time":1473078330,"description":"The Block - S12E08 - Guest Bedrooms Revealed\r\n\r\nAfter seven gruelling days of renovating their guest bedrooms, the teams are keen to impress the judges with their ideas. There's more art deco design from some couples, while others have struggled to embrace the style of the building.\r\n\r\nComplete name                            : The Block - S12E08 - Guest Bedrooms Revealed.mkv\r\nFormat                                   : Matroska\r\nFormat version                           : Version 4 / Version 2\r\nFile size                                : 1.43 GiB\r\nDuration                                 : 1h 1mn\r\nOverall bit rate mode                    : Variable\r\nOverall bit rate                         : 3 330 Kbps\r\nEncoded date                             : UTC 2016-09-05 05:06:01\r\nWriting application                      : mkvmerge v9.4.0 ('Knurl') 64bit\r\n\r\nVideo\r\nID                                       : 2\r\nFormat                                   : AVC\r\nFormat/Info                              : Advanced Video Codec\r\nFormat profile                           :   \r\nFormat settings, CABAC                   : Yes\r\nFormat settings, ReFrames                : 3 frames\r\nCodec ID                                 : V_MPEG4/ISO/AVC\r\nDuration                                 : 1h 1mn\r\nBit rate mode                            : Variable\r\nBit rate                                 : 2 944 Kbps\r\nMaximum bit rate                         : 3 000 Kbps\r\nWidth                                    : 1 280 pixels\r\nHeight                                   : 720 pixels\r\nDisplay aspect ratio                     : 16:9\r\nFrame rate mode                          : Constant\r\nFrame rate                               : 25.000 fps\r\nStandard                                 : PAL\r\nColor space                              : YUV\r\nChroma subsampling                       : 4:2:0\r\nBit depth                                : 8 bits\r\nScan type                                : Progressive\r\nBits/(Pixel*Frame)                       : 0.128\r\nStream size                              : 1.26 GiB (88%)\r\nWriting library                          : x264 core 112\r\nDefault                                  : Yes\r\nForced                                   : No\r\nColor range                              : Limited\r\nColor primaries                          : BT.709\r\nTransfer characteristics                 : BT.709\r\nMatrix coefficients                      : BT.709\r\n\r\nAudio\r\nID                                       : 1\r\nFormat                                   : AC-3\r\nFormat/Info                              : Audio Coding 3\r\nMode extension                           : CM (complete main)\r\nFormat settings, Endianness              : Big\r\nCodec ID                                 : A_AC3\r\nDuration                                 : 1h 1mn\r\nBit rate mode                            : Constant\r\nBit rate                                 : 384 Kbps\r\nChannel(s)                               : 6 channels\r\nChannel positions                        : Front: L C R, Side: L R, LFE\r\nSampling rate                            : 48.0 KHz\r\nFrame rate                               : 31.250 fps (1536 spf)\r\nCompression mode                         : Lossy\r\nStream size                              : 169 MiB (12%)\r\nDefault                                  : Yes\r\nForced                                   : No","torrent":{"xt":"urn:btih:b88296be12d1fbeb381cbe96afe59755a821acbc","amp;dn":"The+Block+-+S12E08+-+Guest+Bedrooms+Revealed","amp;tr":["udp%3A%2F%2Ftracker.leechers-paradise.org%3A6969","udp%3A%2F%2Fzer0day.ch%3A1337","udp%3A%2F%2Fopen.demonii.com%3A1337","udp%3A%2F%2Ftracker.coppersurfer.tk%3A6969","udp%3A%2F%2Fexodus.desync.com%3A6969"],"infoHash":"b88296be12d1fbeb381cbe96afe59755a821acbc","infoHashBuffer":{"type":"Buffer","data":[184,130,150,190,18,209,251,235,56,28,190,150,175,229,151,85,168,33,172,188]},"announce":[],"urlList":[]}}